{"title":"Big.Driver(2014)720p.HDTV.H264.AAC.Raven","uid":11245134,"size":700999181,"categoryP":"video","categoryS":"movies","magnet":"?xt=urn:btih:470d883fbd3d6980d4cbf45a841c0e1cf17897a5&amp;dn=Big.Driver%282014%29720p.HDTV.H264.AAC.Raven&amp;tr=udp%3A%2F%2Ftracker.openbittorrent.com%3A80&amp;tr=udp%3A%2F%2Fopen.demonii.com%3A1337&amp;tr=udp%3A%2F%2Ftracker.coppersurfer.tk%3A6969&amp;tr=udp%3A%2F%2Fexodus.desync.com%3A6969","seeders":0,"leechers":1,"uploader":"Raven1969","files":-1,"time":1413730967,"description":" _____________________________________________________________\n|$***********************************************************$|\n|* &quot;?$$$$$$N    &quot;$$$$$$&quot; &quot;$$$$&quot;  &quot;$$$&quot;$$$$$$$$$$&quot;&quot;$$$  &quot;$$$&quot; *|\n|* &quot;$$$&quot;&quot;&quot;$$k. &quot;$$$&quot;&quot;$$$&quot; &quot;$$$   .$$&quot;&quot;$$$&quot;&quot;&quot;&quot;$$$&quot;&quot;$$$_ '$$$&quot; *|\n|* &quot;$$$  &quot;$$F'&quot;$$&quot;    *$$&quot;&quot;$$$   .$$&quot;&quot;$$$&quot;       &quot;$$$$ '$$$&quot; *|\n|* &quot;$$$__&quot;$$&quot; &quot;$$&quot;____*$$&quot;&quot;$$$   .$$&quot;&quot;$$$$__*$$$&quot;&quot;$$$$$_$$$&quot; *|\n|* &quot;$$$**#$'  &quot;$$$$$$$$$$&quot;&quot;$$$   _$$&quot;&quot;$$$$$$$$$$&quot;&quot;$$$$$$$$$&quot; *| \n|* &quot;$$$&quot;&quot;&quot;$$. &quot;$$$&quot;&quot;&quot;&quot;$$$&quot;&quot;$$$_ .$$$&quot;&quot;$$$        &quot;$$$ '$$$$&quot; *|\n|* &quot;$$$   &quot;$$.&quot;$$&quot;    &quot;$$&quot;&quot;$$$$_.$$$&quot;&quot;$$$&quot;___*$$&quot;&quot;$$$  '$$$&quot; *|\n|* &quot;$$$    $$$&quot;$$$    $$$&quot;  &quot;$$$$$&quot;  &quot;$$$$$$$$$$&quot;&quot;$$$   $$$&quot; *|\n|* &quot;&quot;&quot;&quot;    &quot;&quot;&quot;&quot;&quot;&quot;&quot;    &quot;&quot;&quot;&quot;    &quot;&quot;&quot;    &quot;&quot;&quot;&quot;&quot;&quot;&quot;&quot;&quot;&quot;&quot;  &quot;&quot;&quot;   &quot;&quot;&quot;&quot; *|\n|$*************************(PRESENTS)************************$|\n\n\n         Big.Driver(2014)720p.HDTV.H264.AAC.Raven.mp4\n\n\n\nIMDB Rating:  7.5\n\n\n\n\n\nScreen image:\n &lt;a href=&quot;\nhttp://i.imgur.com/QgbYy0e.jpg&quot; rel=&quot;nofollow&quot; target=&quot;_NEW&quot;&gt;\nhttp://i.imgur.com/QgbYy0e.jpg&lt;/a&gt;\n\n\nA famous mystery writer sets out for revenge after a brutal attack.\n\n\n\nGeneral\nFormat                                   : MPEG-4\nFormat profile                           : Base Media\nCodec ID                                 : isom\nFile size                                : 669 MiB\nDuration                                 : 1h 25mn\nOverall bit rate mode                    : Variable\nOverall bit rate                         : 1 096 Kbps\nEncoded date                             : UTC 2014-10-19 12:41:32\nTagged date                              : UTC 2014-10-19 12:41:32\n\nVideo\nID                                       : 1\nFormat                                   : AVC\nFormat/Info                              : Advanced Video Codec\nFormat profile                           : &lt;a class=&quot;__cf_email__&quot; href=&quot;/cdn-cgi/l/email-protection&quot; data-cfemail=&quot;e2aa8b858aa2aed6ccd2&quot;&gt;[email&amp;#160;protected]&lt;/a&gt;&lt;script cf-hash='f9e31' type=&quot;text/javascript&quot;&gt;\n/* &lt;![CDATA[ */!function(){try{var t=&quot;currentScript&quot;in document?document.currentScript:function(){for(var t=document.getElementsByTagName(&quot;script&quot;),e=t.length;e--;)if(t[e].getAttribute(&quot;cf-hash&quot;))return t[e]}();if(t&amp;&amp;t.previousSibling){var e,r,n,i,c=t.previousSibling,a=c.getAttribute(&quot;data-cfemail&quot;);if(a){for(e=&quot;&quot;,r=parseInt(a.substr(0,2),16),n=2;a.length-n;n+=2)i=parseInt(a.substr(n,2),16)^r,e+=String.fromCharCode(i);e=document.createTextNode(e),c.parentNode.replaceChild(e,c)}}}catch(u){}}();/* ]]&gt; */&lt;/script&gt;\nFormat settings, CABAC                   : Yes\nFormat settings, ReFrames                : 8 frames\nCodec ID                                 : avc1\nCodec ID/Info                            : Advanced Video Coding\nDuration                                 : 1h 25mn\nBit rate                                 : 1 000 Kbps\nMaximum bit rate                         : 5 965 Kbps\nWidth                                    : 1 280 pixels\nHeight                                   : 720 pixels\nDisplay aspect ratio                     : 16:9\nFrame rate mode                          : Constant\nFrame rate                               : 23.976 fps\nColor space                              : YUV\nChroma subsampling                       : 4:2:0\nBit depth                                : 8 bits\nScan type                                : Progressive\nBits/(Pixel*Frame)                       : 0.045\nStream size                              : 610 MiB (91%)\nWriting library                          : x264 core 132 \nEncoded date                             : UTC 2014-10-19 12:41:32\nTagged date                              : UTC 2014-10-19 12:41:42\n\nAudio\nID                                       : 2\nFormat                                   : AAC\nFormat/Info                              : Advanced Audio Codec\nFormat profile                           : LC\nCodec ID                                 : 40\nDuration                                 : 1h 25mn\nBit rate mode                            : Variable\nBit rate                                 : 92.0 Kbps\nMaximum bit rate                         : 100 Kbps\nChannel(s)                               : 2 channels\nChannel positions                        : Front: L R\nSampling rate                            : 48.0 KHz\nCompression mode                         : Lossy\nStream size                              : 56.1 MiB (8%)\nEncoded date                             : UTC 2014-10-19 11:41:47\nTagged date                              : UTC 2014-10-19 12:41:42\n\nPLEASE  SEED FOR AS LONG AS POSSIBLE TO KEEP THE TORRENT ALIVE :-)","torrent":{"xt":"urn:btih:470d883fbd3d6980d4cbf45a841c0e1cf17897a5","amp;dn":"Big.Driver%282014%29720p.HDTV.H264.AAC.Raven","amp;tr":["udp%3A%2F%2Ftracker.openbittorrent.com%3A80","udp%3A%2F%2Fopen.demonii.com%3A1337","udp%3A%2F%2Ftracker.coppersurfer.tk%3A6969","udp%3A%2F%2Fexodus.desync.com%3A6969"],"infoHash":"470d883fbd3d6980d4cbf45a841c0e1cf17897a5","infoHashBuffer":{"type":"Buffer","data":[71,13,136,63,189,61,105,128,212,203,244,90,132,28,14,28,241,120,151,165]},"announce":[],"urlList":[]}}